<?xml version="1.0" encoding="UTF-8"?><svg id="Layer_2" xmlns="http://www.w3.org/2000/svg" viewBox="0 0 448.69 61.75" width="180"><defs><style>.cls-1{fill:#3284d6;}.cls-2{fill:#383838;}</style></defs><g id="Layer_1-2"><g><g><polygon class="cls-2" points="155.01 32.58 145.8 11.74 144.19 11.74 135.06 32.58 127.86 11.74 117.42 11.74 132.36 48.29 134.38 48.29 144.99 28.4 155.64 48.29 157.66 48.29 172.6 11.74 162.11 11.74 155.01 32.58"/><polygon class="cls-2" points="182.52 11.74 176.68 11.74 176.68 48.29 182.52 48.29 185.13 48.29 200.95 48.29 200.95 41.03 185.13 41.03 185.13 32.63 199.91 32.63 199.91 25.52 185.13 25.52 185.13 19 200.95 19 200.95 11.74 185.13 11.74 182.52 11.74"/><path class="cls-2" d="M247.26,13.99c-2.92-1.5-6.39-2.25-10.39-2.25h-13.05V48.29h13.05c4,0,7.47-.75,10.39-2.25,2.92-1.5,5.19-3.61,6.79-6.34,1.6-2.73,2.4-5.96,2.4-9.68s-.8-7-2.4-9.71c-1.6-2.72-3.86-4.82-6.79-6.32Zm-.84,21.01c-.59,1.34-1.38,2.41-2.38,3.21-.99,.8-2.14,1.38-3.45,1.72s-2.65,.52-4.05,.52h-3.65V19.57h3.65c1.39,0,2.74,.17,4.05,.52s2.45,.92,3.45,1.72c.99,.8,1.78,1.87,2.38,3.21,.59,1.34,.89,3,.89,4.99s-.3,3.65-.89,4.99Z"/><path class="cls-2" d="M293.73,16.23c-1.78-1.7-3.86-3.02-6.24-3.94-2.38-.92-4.99-1.38-7.81-1.38s-5.38,.46-7.78,1.38c-2.4,.92-4.49,2.24-6.27,3.94-1.78,1.71-3.16,3.72-4.15,6.06-.99,2.33-1.49,4.91-1.49,7.73s.48,5.41,1.44,7.78c.96,2.37,2.31,4.42,4.07,6.16,1.76,1.74,3.84,3.09,6.24,4.05,2.4,.96,5.05,1.44,7.94,1.44s5.48-.48,7.88-1.44c2.4-.96,4.48-2.31,6.24-4.05,1.76-1.74,3.11-3.79,4.07-6.16,.96-2.37,1.44-4.96,1.44-7.78s-.49-5.4-1.46-7.73c-.97-2.33-2.35-4.35-4.12-6.06Zm-5.04,19.5c-.85,1.65-2.05,2.95-3.6,3.89-1.55,.94-3.35,1.41-5.4,1.41s-3.91-.47-5.46-1.41c-1.55-.94-2.75-2.24-3.6-3.89-.85-1.65-1.28-3.56-1.28-5.72s.43-4.06,1.28-5.72c.85-1.65,2.05-2.95,3.6-3.89,1.55-.94,3.37-1.41,5.46-1.41s3.95,.47,5.48,1.41c1.53,.94,2.72,2.24,3.55,3.89,.84,1.65,1.25,3.56,1.25,5.72s-.43,4.06-1.28,5.72Z"/><path class="cls-2" d="M344.61,30.69c-.85-.91-1.84-1.68-2.95-2.32-1.11-.64-2.32-1.21-3.6-1.7-1.71-.59-3.16-1.15-4.36-1.67-1.2-.52-2.12-1.1-2.77-1.72-.64-.63-.97-1.36-.97-2.19s.33-1.47,.99-2.01c.66-.54,1.62-.81,2.87-.81,.94,0,1.82,.18,2.64,.55,.82,.37,1.57,.87,2.24,1.51,.68,.64,1.28,1.4,1.8,2.27l6.74-3.76c-.63-1.25-1.53-2.49-2.72-3.71-1.18-1.22-2.67-2.23-4.46-3.03-1.79-.8-3.91-1.2-6.34-1.2s-4.52,.41-6.45,1.23c-1.93,.82-3.46,2.01-4.59,3.58-1.13,1.57-1.7,3.43-1.7,5.59,0,1.81,.33,3.35,.99,4.62,.66,1.27,1.5,2.35,2.51,3.24,1.01,.89,2.08,1.61,3.21,2.17,1.13,.56,2.13,.99,3,1.31,1.78,.66,3.2,1.25,4.28,1.77,1.08,.52,1.86,1.07,2.35,1.64,.49,.57,.73,1.33,.73,2.27,0,1.12-.42,1.99-1.25,2.64-.84,.64-1.9,.97-3.18,.97-1.22,0-2.38-.26-3.47-.78-1.1-.52-2.11-1.27-3.03-2.25-.92-.97-1.75-2.12-2.48-3.45l-6.16,4.44c.84,1.74,2,3.34,3.5,4.8,1.5,1.46,3.26,2.62,5.3,3.47,2.04,.85,4.24,1.28,6.6,1.28,1.71,0,3.37-.25,4.99-.76,1.62-.5,3.06-1.24,4.33-2.22,1.27-.97,2.28-2.18,3.03-3.63,.75-1.44,1.12-3.09,1.12-4.93,0-1.53-.24-2.89-.73-4.07-.49-1.18-1.16-2.23-2.01-3.13Z"/><path class="cls-2" d="M384.89,16.23c-1.78-1.7-3.86-3.02-6.24-3.94-2.38-.92-4.99-1.38-7.81-1.38s-5.38,.46-7.78,1.38c-2.4,.92-4.49,2.24-6.27,3.94-1.78,1.71-3.16,3.72-4.15,6.06-.99,2.33-1.49,4.91-1.49,7.73s.48,5.41,1.44,7.78c.96,2.37,2.31,4.42,4.07,6.16,1.76,1.74,3.84,3.09,6.24,4.05,2.4,.96,5.05,1.44,7.94,1.44s5.48-.48,7.88-1.44c2.4-.96,4.48-2.31,6.24-4.05,1.76-1.74,3.11-3.79,4.07-6.16,.96-2.37,1.44-4.96,1.44-7.78s-.49-5.4-1.46-7.73c-.97-2.33-2.35-4.35-4.12-6.06Zm-5.04,19.5c-.85,1.65-2.05,2.95-3.6,3.89-1.55,.94-3.35,1.41-5.4,1.41s-3.91-.47-5.46-1.41c-1.55-.94-2.75-2.24-3.6-3.89-.85-1.65-1.28-3.56-1.28-5.72s.43-4.06,1.28-5.72c.85-1.65,2.05-2.95,3.6-3.89,1.55-.94,3.37-1.41,5.46-1.41s3.95,.47,5.48,1.41c1.53,.94,2.72,2.24,3.55,3.89,.84,1.65,1.25,3.56,1.25,5.72s-.43,4.06-1.28,5.72Z"/><polygon class="cls-2" points="401.96 11.74 396.12 11.74 396.12 48.29 404.57 48.29 404.57 33.62 417.78 33.62 417.78 26.52 404.57 26.52 404.57 19.31 418.31 19.31 418.31 11.74 404.57 11.74 401.96 11.74"/><polygon class="cls-2" points="419.77 11.74 419.77 19.63 429.79 19.63 429.79 48.29 438.62 48.29 438.62 19.63 448.69 19.63 448.69 11.74 419.77 11.74"/></g><path class="cls-1" d="M50.68,1.19L20.1,29.57c-.9,.83-1.41,2-1.41,3.23v24.54c0,3.85,4.58,5.85,7.4,3.23l30.58-28.38c.9-.83,1.41-2,1.41-3.23V4.42c0-3.85-4.58-5.85-7.4-3.23Z"/><path class="cls-1" d="M90.08,1.19l-30.58,28.38c-.9,.83-1.41,2-1.41,3.23v24.54c0,3.85,4.58,5.85,7.4,3.23l30.58-28.38c.9-.83,1.41-2,1.41-3.23V4.42c0-3.85-4.58-5.85-7.4-3.23Z"/><circle class="cls-1" cx="11.6" cy="11.6" r="11.6"/></g></g></svg>